{
    "asset" : {
        "generator" : "Khronos glTF Blender I/O v1.6.16",
        "version" : "2.0"
    },
    "scene" : 0,
    "scenes" : [
        {
            "name" : "Scene",
            "nodes" : [
                0,
                1,
                2,
                3,
                4,
                5,
                6,
                7,
                8,
                9,
                10,
                11,
                12,
                13,
                14
            ]
        }
    ],
    "nodes" : [
        {
            "name" : "Light.001",
            "rotation" : [
                0.16907575726509094,
                0.7558803558349609,
                -0.27217137813568115,
                0.570947527885437
            ],
            "translation" : [
                4.076245307922363,
                5.903861999511719,
                -1.0054539442062378
            ]
        },
        {
            "name" : "Light.002",
            "rotation" : [
                0.16907575726509094,
                0.7558803558349609,
                -0.27217137813568115,
                0.570947527885437
            ],
            "translation" : [
                4.076245307922363,
                5.903861999511719,
                -1.0054539442062378
            ]
        },
        {
            "name" : "Light.003",
            "rotation" : [
                0.16907575726509094,
                0.7558803558349609,
                -0.27217137813568115,
                0.570947527885437
            ],
            "translation" : [
                4.076245307922363,
                5.903861999511719,
                -1.0054539442062378
            ]
        },
        {
            "name" : "Light.004",
            "rotation" : [
                0.16907575726509094,
                0.7558803558349609,
                -0.27217137813568115,
                0.570947527885437
            ],
            "translation" : [
                4.076245307922363,
                5.903861999511719,
                -1.0054539442062378
            ]
        },
        {
            "name" : "Camera",
            "rotation" : [
                0.483536034822464,
                0.33687159419059753,
                -0.20870360732078552,
                0.7804827094078064
            ],
            "translation" : [
                7.358891487121582,
                4.958309173583984,
                6.925790786743164
            ]
        },
        {
            "name" : "Light",
            "rotation" : [
                0.16907575726509094,
                0.7558803558349609,
                -0.27217137813568115,
                0.570947527885437
            ],
            "translation" : [
                4.076245307922363,
                5.903861999511719,
                -1.0054539442062378
            ]
        },
        {
            "mesh" : 0,
            "name" : "Cube",
            "scale" : [
                0.4306524097919464,
                0.0476306676864624,
                0.4306524097919464
            ]
        },
        {
            "mesh" : 1,
            "name" : "\u30d9\u30b8\u30a8\u30ab\u30fc\u30d6",
            "scale" : [
                0.22651554644107819,
                0.22651554644107819,
                0.22651554644107819
            ],
            "translation" : [
                -0.011021722108125687,
                0.07019434869289398,
                -0.26460105180740356
            ]
        },
        {
            "mesh" : 2,
            "name" : "\u30d9\u30b8\u30a8\u30ab\u30fc\u30d6.001",
            "scale" : [
                0.17546461522579193,
                0.17546461522579193,
                0.17546461522579193
            ],
            "translation" : [
                -0.01251262053847313,
                0.08118908852338791,
                -0.09835094213485718
            ]
        },
        {
            "mesh" : 1,
            "name" : "\u30d9\u30b8\u30a8\u30ab\u30fc\u30d6.002",
            "scale" : [
                0.24467337131500244,
                0.24467337131500244,
                0.24467337131500244
            ],
            "translation" : [
                -0.017323195934295654,
                0.11036790907382965,
                0.07336973398923874
            ]
        },
        {
            "mesh" : 3,
            "name" : "\u30d9\u30b8\u30a8\u30ab\u30fc\u30d6.003",
            "rotation" : [
                0,
                -0.7091576457023621,
                0,
                0.7050499320030212
            ],
            "scale" : [
                0.16573795676231384,
                0.20010846853256226,
                0.2001074254512787
            ],
            "translation" : [
                -0.02648080885410309,
                0.07019434869289398,
                -0.1316528618335724
            ]
        },
        {
            "mesh" : 4,
            "name" : "\u30d9\u30b8\u30a8\u30ab\u30fc\u30d6.004",
            "rotation" : [
                0,
                0,
                0.9999819993972778,
                -0.00600326806306839
            ],
            "scale" : [
                0.22651554644107819,
                0.22651554644107819,
                0.22651554644107819
            ],
            "translation" : [
                0.005244705826044083,
                -0.05540565773844719,
                -0.25224268436431885
            ]
        },
        {
            "mesh" : 5,
            "name" : "\u30d9\u30b8\u30a8\u30ab\u30fc\u30d6.005",
            "rotation" : [
                0,
                0,
                0.9999819993972778,
                -0.00600326806306839
            ],
            "scale" : [
                0.17546461522579193,
                0.17546461522579193,
                0.17546461522579193
            ],
            "translation" : [
                0.006867501884698868,
                -0.06638175249099731,
                -0.08599255979061127
            ]
        },
        {
            "mesh" : 4,
            "name" : "\u30d9\u30b8\u30a8\u30ab\u30fc\u30d6.006",
            "rotation" : [
                0,
                0,
                0.9999819993972778,
                -0.00600326806306839
            ],
            "scale" : [
                0.24467337131500244,
                0.24467337131500244,
                0.24467337131500244
            ],
            "translation" : [
                0.012028053402900696,
                -0.09550075978040695,
                0.08572810888290405
            ]
        },
        {
            "mesh" : 6,
            "name" : "\u30d9\u30b8\u30a8\u30ab\u30fc\u30d6.007",
            "rotation" : [
                0.7091448903083801,
                0.004257155582308769,
                0.7050372362136841,
                -0.0042326864786446095
            ],
            "scale" : [
                0.16573795676231384,
                0.20010846853256226,
                0.2001074254512787
            ],
            "translation" : [
                0.020702678710222244,
                -0.055220093578100204,
                -0.11929448693990707
            ]
        }
    ],
    "materials" : [
        {
            "doubleSided" : true,
            "name" : "king.001",
            "pbrMetallicRoughness" : {
                "baseColorFactor" : [
                    0.3446083664894104,
                    0,
                    0.8000000715255737,
                    1
                ],
                "metallicFactor" : 0,
                "roughnessFactor" : 0.5
            }
        },
        {
            "doubleSided" : true,
            "name" : "\u30de\u30c6\u30ea\u30a2\u30eb.008",
            "pbrMetallicRoughness" : {
                "baseColorFactor" : [
                    0.9773905277252197,
                    0.9773905277252197,
                    0.9773905277252197,
                    1
                ],
                "metallicFactor" : 0,
                "roughnessFactor" : 0.5
            }
        }
    ],
    "meshes" : [
        {
            "name" : "Cube.005",
            "primitives" : [
                {
                    "attributes" : {
                        "POSITION" : 0,
                        "NORMAL" : 1,
                        "TEXCOORD_0" : 2
                    },
                    "indices" : 3,
                    "material" : 0
                }
            ]
        },
        {
            "name" : "\u30d9\u30b8\u30a8\u30ab\u30fc\u30d6.024",
            "primitives" : [
                {
                    "attributes" : {
                        "POSITION" : 4,
                        "NORMAL" : 5,
                        "TEXCOORD_0" : 6
                    },
                    "indices" : 7,
                    "material" : 1
                }
            ]
        },
        {
            "name" : "\u30d9\u30b8\u30a8\u30ab\u30fc\u30d6.025",
            "primitives" : [
                {
                    "attributes" : {
                        "POSITION" : 8,
                        "NORMAL" : 9,
                        "TEXCOORD_0" : 10
                    },
                    "indices" : 7,
                    "material" : 1
                }
            ]
        },
        {
            "name" : "\u30d9\u30b8\u30a8\u30ab\u30fc\u30d6.026",
            "primitives" : [
                {
                    "attributes" : {
                        "POSITION" : 11,
                        "NORMAL" : 12,
                        "TEXCOORD_0" : 13
                    },
                    "indices" : 14,
                    "material" : 1
                }
            ]
        },
        {
            "name" : "\u30d9\u30b8\u30a8\u30ab\u30fc\u30d6.027",
            "primitives" : [
                {
                    "attributes" : {
                        "POSITION" : 15,
                        "NORMAL" : 16,
                        "TEXCOORD_0" : 17
                    },
                    "indices" : 7,
                    "material" : 1
                }
            ]
        },
        {
            "name" : "\u30d9\u30b8\u30a8\u30ab\u30fc\u30d6.028",
            "primitives" : [
                {
                    "attributes" : {
                        "POSITION" : 18,
                        "NORMAL" : 19,
                        "TEXCOORD_0" : 20
                    },
                    "indices" : 7,
                    "material" : 1
                }
            ]
        },
        {
            "name" : "\u30d9\u30b8\u30a8\u30ab\u30fc\u30d6.029",
            "primitives" : [
                {
                    "attributes" : {
                        "POSITION" : 21,
                        "NORMAL" : 22,
                        "TEXCOORD_0" : 23
                    },
                    "indices" : 14,
                    "material" : 1
                }
            ]
        }
    ],
    "accessors" : [
        {
            "bufferView" : 0,
            "componentType" : 5126,
            "count" : 34,
            "max" : [
                0.8120087385177612,
                2.4110217094421387,
                0.7352538108825684
            ],
            "min" : [
                -0.8120087385177612,
                -2.4110217094421387,
                -1.62537682056427
            ],
            "type" : "VEC3"
        },
        {
            "bufferView" : 1,
            "componentType" : 5126,
            "count" : 34,
            "type" : "VEC3"
        },
        {
            "bufferView" : 2,
            "componentType" : 5126,
            "count" : 34,
            "type" : "VEC2"
        },
        {
            "bufferView" : 3,
            "componentType" : 5123,
            "count" : 48,
            "type" : "SCALAR"
        },
        {
            "bufferView" : 4,
            "componentType" : 5126,
            "count" : 349,
            "max" : [
                1.2688292264938354,
                0.2096858024597168,
                0.09845487773418427
            ],
            "min" : [
                -1.0975133180618286,
                -0.2096858024597168,
                -0.3206635117530823
            ],
            "type" : "VEC3"
        },
        {
            "bufferView" : 5,
            "componentType" : 5126,
            "count" : 349,
            "type" : "VEC3"
        },
        {
            "bufferView" : 6,
            "componentType" : 5126,
            "count" : 349,
            "type" : "VEC2"
        },
        {
            "bufferView" : 7,
            "componentType" : 5123,
            "count" : 1788,
            "type" : "SCALAR"
        },
        {
            "bufferView" : 8,
            "componentType" : 5126,
            "count" : 349,
            "max" : [
                1.2577643394470215,
                0.20986726880073547,
                0.09863594174385071
            ],
            "min" : [
                -1.0739850997924805,
                -0.20986726880073547,
                -0.3208445906639099
            ],
            "type" : "VEC3"
        },
        {
            "bufferView" : 9,
            "componentType" : 5126,
            "count" : 349,
            "type" : "VEC3"
        },
        {
            "bufferView" : 10,
            "componentType" : 5126,
            "count" : 349,
            "type" : "VEC2"
        },
        {
            "bufferView" : 11,
            "componentType" : 5126,
            "count" : 193,
            "max" : [
                1.20145845413208,
                0.2556903660297394,
                0.14519184827804565
            ],
            "min" : [
                -1.067622184753418,
                -0.2556903660297394,
                -0.36618295311927795
            ],
            "type" : "VEC3"
        },
        {
            "bufferView" : 12,
            "componentType" : 5126,
            "count" : 193,
            "type" : "VEC3"
        },
        {
            "bufferView" : 13,
            "componentType" : 5126,
            "count" : 193,
            "type" : "VEC2"
        },
        {
            "bufferView" : 14,
            "componentType" : 5123,
            "count" : 924,
            "type" : "SCALAR"
        },
        {
            "bufferView" : 15,
            "componentType" : 5126,
            "count" : 349,
            "max" : [
                1.2688292264938354,
                0.2096858024597168,
                0.09845487773418427
            ],
            "min" : [
                -1.0975133180618286,
                -0.2096858024597168,
                -0.3206635117530823
            ],
            "type" : "VEC3"
        },
        {
            "bufferView" : 16,
            "componentType" : 5126,
            "count" : 349,
            "type" : "VEC3"
        },
        {
            "bufferView" : 17,
            "componentType" : 5126,
            "count" : 349,
            "type" : "VEC2"
        },
        {
            "bufferView" : 18,
            "componentType" : 5126,
            "count" : 349,
            "max" : [
                1.2577643394470215,
                0.20986726880073547,
                0.09863594174385071
            ],
            "min" : [
                -1.0739850997924805,
                -0.20986726880073547,
                -0.3208445906639099
            ],
            "type" : "VEC3"
        },
        {
            "bufferView" : 19,
            "componentType" : 5126,
            "count" : 349,
            "type" : "VEC3"
        },
        {
            "bufferView" : 20,
            "componentType" : 5126,
            "count" : 349,
            "type" : "VEC2"
        },
        {
            "bufferView" : 21,
            "componentType" : 5126,
            "count" : 193,
            "max" : [
                1.20145845413208,
                0.2556903660297394,
                0.14519184827804565
            ],
            "min" : [
                -1.067622184753418,
                -0.2556903660297394,
                -0.36618295311927795
            ],
            "type" : "VEC3"
        },
        {
            "bufferView" : 22,
            "componentType" : 5126,
            "count" : 193,
            "type" : "VEC3"
        },
        {
            "bufferView" : 23,
            "componentType" : 5126,
            "count" : 193,
            "type" : "VEC2"
        }
    ],
    "bufferViews" : [
        {
            "buffer" : 0,
            "byteLength" : 408,
            "byteOffset" : 0
        },
        {
            "buffer" : 0,
            "byteLength" : 408,
            "byteOffset" : 408
        },
        {
            "buffer" : 0,
            "byteLength" : 272,
            "byteOffset" : 816
        },
        {
            "buffer" : 0,
            "byteLength" : 96,
            "byteOffset" : 1088
        },
        {
            "buffer" : 0,
            "byteLength" : 4188,
            "byteOffset" : 1184
        },
        {
            "buffer" : 0,
            "byteLength" : 4188,
            "byteOffset" : 5372
        },
        {
            "buffer" : 0,
            "byteLength" : 2792,
            "byteOffset" : 9560
        },
        {
            "buffer" : 0,
            "byteLength" : 3576,
            "byteOffset" : 12352
        },
        {
            "buffer" : 0,
            "byteLength" : 4188,
            "byteOffset" : 15928
        },
        {
            "buffer" : 0,
            "byteLength" : 4188,
            "byteOffset" : 20116
        },
        {
            "buffer" : 0,
            "byteLength" : 2792,
            "byteOffset" : 24304
        },
        {
            "buffer" : 0,
            "byteLength" : 2316,
            "byteOffset" : 27096
        },
        {
            "buffer" : 0,
            "byteLength" : 2316,
            "byteOffset" : 29412
        },
        {
            "buffer" : 0,
            "byteLength" : 1544,
            "byteOffset" : 31728
        },
        {
            "buffer" : 0,
            "byteLength" : 1848,
            "byteOffset" : 33272
        },
        {
            "buffer" : 0,
            "byteLength" : 4188,
            "byteOffset" : 35120
        },
        {
            "buffer" : 0,
            "byteLength" : 4188,
            "byteOffset" : 39308
        },
        {
            "buffer" : 0,
            "byteLength" : 2792,
            "byteOffset" : 43496
        },
        {
            "buffer" : 0,
            "byteLength" : 4188,
            "byteOffset" : 46288
        },
        {
            "buffer" : 0,
            "byteLength" : 4188,
            "byteOffset" : 50476
        },
        {
            "buffer" : 0,
            "byteLength" : 2792,
            "byteOffset" : 54664
        },
        {
            "buffer" : 0,
            "byteLength" : 2316,
            "byteOffset" : 57456
        },
        {
            "buffer" : 0,
            "byteLength" : 2316,
            "byteOffset" : 59772
        },
        {
            "buffer" : 0,
            "byteLength" : 1544,
            "byteOffset" : 62088
        }
    ],
    "buffers" : [
        {
            "byteLength" : 63632,
            "uri" : "data:application/octet-stream;base64,"
        }
    ]
}
